
        <svg xmlns="http://www.w3.org/2000/svg" xmlns:xlink="http://www.w3.org/1999/xlink" version="1.1" width="3171.4285714285716" height="2168.5714285714284" viewBox="0 0 3171.4285714285716 2168.5714285714284">
			
			<g transform="scale(8.571428571428571) translate(10, 10)">
				<defs id="SvgjsDefs1558"><linearGradient id="SvgjsLinearGradient1567"><stop id="SvgjsStop1568" stop-color="#905e26" offset="0"/><stop id="SvgjsStop1569" stop-color="#f5ec9b" offset="0.5"/><stop id="SvgjsStop1570" stop-color="#905e26" offset="1"/></linearGradient><linearGradient id="SvgjsLinearGradient1571"><stop id="SvgjsStop1572" stop-color="#905e26" offset="0"/><stop id="SvgjsStop1573" stop-color="#f5ec9b" offset="0.5"/><stop id="SvgjsStop1574" stop-color="#905e26" offset="1"/></linearGradient><linearGradient id="SvgjsLinearGradient1575"><stop id="SvgjsStop1576" stop-color="#905e26" offset="0"/><stop id="SvgjsStop1577" stop-color="#f5ec9b" offset="0.5"/><stop id="SvgjsStop1578" stop-color="#905e26" offset="1"/></linearGradient><linearGradient id="SvgjsLinearGradient1579"><stop id="SvgjsStop1580" stop-color="#905e26" offset="0"/><stop id="SvgjsStop1581" stop-color="#f5ec9b" offset="0.5"/><stop id="SvgjsStop1582" stop-color="#905e26" offset="1"/></linearGradient></defs><g id="SvgjsG1559" featureKey="rootContainer" transform="matrix(1,0,0,1,0,19)" fill="#fff"><rect y="0" height="1" width="1" opacity="0"/><rect y="209" width="350" height="5"/></g><g id="SvgjsG1560" featureKey="symbolFeature-0" transform="matrix(1.8429715463989655,0,0,1.8429715463989655,82.95945404948819,-33.089015475072344)" fill="#fff"><path xmlns="http://www.w3.org/2000/svg" d="M99.975,59.486c0,1.768-1.429,3.198-3.196,3.198H58.779c-0.901,0-1.714-0.371-2.296-0.975  l-25.08-25.901L5.478,61.748c-0.58,0.58-1.378,0.937-2.261,0.937c-1.766,0-3.195-1.431-3.195-3.198c0-0.883,0.358-1.682,0.935-2.259  L29.18,28.989c0.579-0.577,1.379-0.937,2.261-0.937c0.901,0,1.715,0.373,2.295,0.973l7.348,7.592h19.7v-8.896h8.479v8.896H79.55  c0.957,0,1.818,0.423,2.405,1.089l17.229,19.673C99.677,57.943,99.975,58.683,99.975,59.486z M22.589,58.375h6.974v-6.978h-6.974  V58.375z M33.104,58.375h6.973v-6.978h-6.973V58.375z M22.589,68.361h6.974v-6.978h-6.974V68.361z M33.104,68.397h6.973v-6.979  h-6.973V68.397z"/></g><g id="SvgjsG1561" featureKey="nameFeature-0" transform="matrix(1.3448935136281166,0,0,1.3448935136281166,-5.647502059180567,96.84551736559978)" fill="#fff"><path d="M19.101563 40 l-7.148437 -12.421875 l-3.867187 0 l0 12.421875 l-3.886719 0 l0 -27.617187 l9.296875 0 c5.78125 0 8.417969 3.535156 8.417969 7.871094 c0 3.847656 -2.265625 6.523438 -6.054687 7.167969 l7.792969 12.578125 l-4.550781 0 z M8.085938 15.742188 l0 8.867188 l4.882813 0 c3.59375 0 5.214844 -1.796875 5.214844 -4.414062 c0 -2.578125 -1.621094 -4.453125 -5.214844 -4.453125 l-4.882812 0 z M35.786621 40 l0 -27.617187 l3.886719 0 l0 27.617188 l-3.886719 0 z M71.670899 12.382813 l4.101563 0 l-10.15625 27.617188 l-4.0625 0 l-10.117187 -27.617187 l4.082031 0 l8.085938 22.851563 z M102.535645 15.878906 l-11.054687 0 l0 8.59375 l9.746094 0 l0 3.476563 l-9.746094 0 l0 8.535156 l11.054688 0 l0 3.515625 l-15.019531 0 l0 -27.617187 l15.019531 0 l0 3.496094 z M130.490235 40 l-7.148437 -12.421875 l-3.867187 0 l0 12.421875 l-3.886719 0 l0 -27.617187 l9.296875 0 c5.78125 0 8.417969 3.535156 8.417969 7.871094 c0 3.847656 -2.265625 6.523438 -6.054687 7.167969 l7.792969 12.578125 l-4.550781 0 z M119.47461 15.742188 l0 8.867188 l4.882813 0 c3.59375 0 5.214844 -1.796875 5.214844 -4.414062 c0 -2.578125 -1.621094 -4.453125 -5.214844 -4.453125 l-4.882812 0 z M175.930664 40.371094 c-7.832031 0 -13.808594 -5.371094 -13.808594 -14.199219 c0 -8.789062 5.976563 -14.160156 13.808594 -14.160156 c5.585938 0 10.214844 2.773438 12.34375 7.519531 l-3.59375 1.425781 c-1.601562 -3.378906 -4.863281 -5.273437 -8.75 -5.273437 c-5.546875 0 -9.941406 3.828125 -9.941406 10.488281 c0 6.699219 4.394531 10.527344 9.941406 10.527344 c3.886719 0 7.148438 -1.894531 8.75 -5.273437 l3.59375 1.445313 c-2.128906 4.726563 -6.757812 7.5 -12.34375 7.5 z M200.54541 40 l0 -27.617187 l3.886719 0 l0 27.617188 l-3.886719 0 z M234.027344 12.382813 l0 3.496094 l-6.992187 0 l0 24.121094 l-3.847656 0 l0 -24.121094 l-7.011719 0 l0 -3.496094 l17.851563 0 z M264.442871 12.382813 l-9.082031 14.453125 l0 13.164063 l-3.925781 0 l0 -13.144531 l-9.101562 -14.472656 l4.414063 0 l6.640625 10.957031 l6.660156 -10.957031 l4.394531 0 z"/></g><g id="SvgjsG1562" featureKey="nameFeature-1" transform="matrix(1.2869010066481508,0,0,1.2869010066481508,-5.403978836510789,145.0645461286147)" fill="#fff"><path d="M21.699219 12.382813 l3.886719 0 l0 27.617188 l-3.886719 0 l0 -12.109375 l-13.574219 0 l0 12.109375 l-3.925781 0 l0 -27.617187 l3.925781 0 l0 12.050781 l13.574219 0 l0 -12.050781 z M58.345215 40 l-2.304687 -6.445312 l-12.34375 0 l-2.304687 6.445313 l-4.042969 0 l10.175781 -27.617187 l4.6875 0 l10.175781 27.617188 l-4.042969 0 z M44.907715 30.15625 l9.921875 0 l-4.960937 -13.925781 z M92.745117 12.382813 l3.867188 0 l0 27.617188 l-4.199219 0 l-14.433594 -21.914062 l0 21.914063 l-3.847656 0 l0 -27.617187 l4.160156 0 l14.453125 21.816406 l0 -21.816406 z M111.480957 40 l0 -27.617187 l9.101563 0 c8.496094 0 12.8125 5.703125 12.8125 13.789063 c0 8.144531 -4.316406 13.828125 -12.8125 13.828125 l-9.101562 0 z M115.367676 36.484375 l5.058594 0 c6.035156 0 8.90625 -4.003906 8.90625 -10.3125 c0 -6.269531 -2.871094 -10.292969 -8.90625 -10.292969 l-5.058594 0 l0 20.605469 z M165.138672 12.382813 l-9.082031 14.453125 l0 13.164063 l-3.925781 0 l0 -13.144531 l-9.101562 -14.472656 l4.414063 0 l6.640625 10.957031 l6.660156 -10.957031 l4.394531 0 z M206.218262 40 l-3.808594 0 l-1.816406 -22.460937 l-8.535156 22.460938 l-2.363281 0 l-8.476562 -22.382812 l-1.855469 22.382813 l-3.828125 0 l2.128906 -27.617187 l5.253906 0 l7.949219 20.878906 l7.988281 -20.878906 l5.253906 0 z M237.903321 40 l-2.304687 -6.445312 l-12.34375 0 l-2.304687 6.445313 l-4.042969 0 l10.175781 -27.617187 l4.6875 0 l10.175781 27.617188 l-4.042969 0 z M224.465821 30.15625 l9.921875 0 l-4.960937 -13.925781 z M272.303223 12.382813 l3.867188 0 l0 27.617188 l-4.199219 0 l-14.433594 -21.914062 l0 21.914063 l-3.847656 0 l0 -27.617187 l4.160156 0 l14.453125 21.816406 l0 -21.816406 z"/></g>
			</g>
		</svg>
	